<svg xmlns="http://www.w3.org/2000/svg" width="495" height="252" viewBox="0 0 495 252" role="img" aria-labelledby="title desc">
  <title id="title">wasabeef Recent Releases</title>
  <desc id="desc">Auto-generated card showing the most recent published releases across public repositories.</desc>
  <style>
    .title { fill: #41b883; font: 600 19px 'Segoe UI', Ubuntu, Sans-Serif; }
    .repo { fill: #273849; font: 700 16px 'Segoe UI', Ubuntu, Sans-Serif; }
    .date { fill: #5f7383; font: 500 11px 'Segoe UI', Ubuntu, Sans-Serif; }
    .tag { fill: #41b883; font: 700 11px 'Segoe UI', Ubuntu, Sans-Serif; }
    .empty { fill: #5f7383; font: 500 12px 'Segoe UI', Ubuntu, Sans-Serif; }
  </style>
  <rect x="1" y="1" width="493" height="250" rx="12" fill="#fffefe" stroke="none" />
  <g transform="translate(24,14) scale(1.0625)"><path d="M8 0C3.58 0 0 3.58 0 8c0 3.54 2.29 6.53 5.47 7.59 .4.07.55-.17.55-.38 0-.19-.01-.82-.01-1.49-2.01.37-2.53-.49-2.69-.94-.09-.23-.48-.94-.82-1.13-.28-.15-.68-.52-.01-.53.63-.01 1.08.58 1.23.82.72 1.21 1.87.87 2.33.66.07-.52.28-.87.51-1.07-1.78-.2-3.64-.89-3.64-3.95 0-.87.31-1.59.82-2.15-.08-.2-.36-1.02.08-2.12 0 0 .67-.21 2.2.82A7.65 7.65 0 0 1 8 4.84c.68 0 1.36.09 2 .27 1.53-1.04 2.2-.82 2.2-.82.44 1.1.16 1.92.08 2.12.51.56.82 1.27.82 2.15 0 3.07-1.87 3.75-3.65 3.95.29.25.54.73.54 1.48 0 1.07-.01 1.93-.01 2.2 0 .21.15.46.55.38A8.01 8.01 0 0 0 16 8c0-4.42-3.58-8-8-8" fill="#41b883" /></g>
  <text x="49" y="25" class="title" dominant-baseline="middle">Recent Releases</text>
  
                <g transform="translate(24,58)">
                  <rect width="447" height="58" rx="12" fill="#edf3ef" />
                  <g transform="translate(10,19) scale(1.2500)">
        <g transform="translate(0,0)">
          <rect width="16" height="16" rx="4" fill="#3178c6" />
          <text x="8" y="8.4" text-anchor="middle" dominant-baseline="middle" fill="#ffffff" style="font:700 6.4px 'Segoe UI', Ubuntu, Sans-Serif;">TS</text>
        </g>
        </g>
                  <text x="40" y="29" class="repo" dominant-baseline="middle">notion-auto-lock-worker</text>
                  <text x="431" y="19" text-anchor="end" class="date" dominant-baseline="middle">2026-06-24</text>
                  <rect x="373.00" y="31" width="58" height="18" rx="9" fill="#fffefe" />
                  <text x="402.00" y="40" text-anchor="middle" class="tag" dominant-baseline="middle">v1.0.0</text>
                </g>
                
                <g transform="translate(24,120)">
                  <rect width="447" height="58" rx="12" fill="#edf3ef" />
                  <g transform="translate(10,19) scale(1.2500)">
        <g transform="translate(0,0)">
          <rect width="16" height="16" rx="4" fill="#3178c6" />
          <text x="8" y="8.4" text-anchor="middle" dominant-baseline="middle" fill="#ffffff" style="font:700 6.4px 'Segoe UI', Ubuntu, Sans-Serif;">TS</text>
        </g>
        </g>
                  <text x="40" y="29" class="repo" dominant-baseline="middle">AgentNote</text>
                  <text x="431" y="19" text-anchor="end" class="date" dominant-baseline="middle">2026-05-15</text>
                  <rect x="373.00" y="31" width="58" height="18" rx="9" fill="#fffefe" />
                  <text x="402.00" y="40" text-anchor="middle" class="tag" dominant-baseline="middle">v1.0.5</text>
                </g>
                
                <g transform="translate(24,182)">
                  <rect width="447" height="58" rx="12" fill="#edf3ef" />
                  <g transform="translate(10,19) scale(1.2500)">
        <g transform="translate(0,0)">
          <rect width="16" height="16" rx="4" fill="#3178c6" />
          <text x="8" y="8.4" text-anchor="middle" dominant-baseline="middle" fill="#ffffff" style="font:700 6.4px 'Segoe UI', Ubuntu, Sans-Serif;">TS</text>
        </g>
        </g>
                  <text x="40" y="29" class="repo" dominant-baseline="middle">AgentNote</text>
                  <text x="431" y="19" text-anchor="end" class="date" dominant-baseline="middle">2026-05-14</text>
                  <rect x="373.00" y="31" width="58" height="18" rx="9" fill="#fffefe" />
                  <text x="402.00" y="40" text-anchor="middle" class="tag" dominant-baseline="middle">v1.0.4</text>
                </g>
                
</svg>
