<svg xmlns="http://www.w3.org/2000/svg" width="495" height="252" viewBox="0 0 495 252" role="img" aria-labelledby="title desc">
  <title id="title">wasabeef Top Repositories by Stars</title>
  <desc id="desc">Auto-generated card showing the most starred public repositories.</desc>
  <style>
    .title { fill: #41b883; font: 600 19px 'Segoe UI', Ubuntu, Sans-Serif; }
    .repo { fill: #273849; font: 700 14px 'Segoe UI', Ubuntu, Sans-Serif; }
    .stars { fill: #273849; font: 700 14px 'Segoe UI', Ubuntu, Sans-Serif; }
    .desc { fill: #5f7383; font: 500 11px 'Segoe UI', Ubuntu, Sans-Serif; }
    .empty { fill: #5f7383; font: 500 12px 'Segoe UI', Ubuntu, Sans-Serif; }
  </style>
  <rect x="1" y="1" width="493" height="250" rx="12" fill="#fffefe" stroke="none" />
  <g transform="translate(24,14) scale(1.0625)"><path d="M8 0C3.58 0 0 3.58 0 8c0 3.54 2.29 6.53 5.47 7.59 .4.07.55-.17.55-.38 0-.19-.01-.82-.01-1.49-2.01.37-2.53-.49-2.69-.94-.09-.23-.48-.94-.82-1.13-.28-.15-.68-.52-.01-.53.63-.01 1.08.58 1.23.82.72 1.21 1.87.87 2.33.66.07-.52.28-.87.51-1.07-1.78-.2-3.64-.89-3.64-3.95 0-.87.31-1.59.82-2.15-.08-.2-.36-1.02.08-2.12 0 0 .67-.21 2.2.82A7.65 7.65 0 0 1 8 4.84c.68 0 1.36.09 2 .27 1.53-1.04 2.2-.82 2.2-.82.44 1.1.16 1.92.08 2.12.51.56.82 1.27.82 2.15 0 3.07-1.87 3.75-3.65 3.95.29.25.54.73.54 1.48 0 1.07-.01 1.93-.01 2.2 0 .21.15.46.55.38A8.01 8.01 0 0 0 16 8c0-4.42-3.58-8-8-8" fill="#41b883" /></g>
  <text x="49" y="25" class="title" dominant-baseline="middle">Top Repositories by Stars</text>
  
                <g transform="translate(24,58)">
                  <rect width="447" height="54" rx="12" fill="#edf3ef" />
                  <circle cx="20" cy="27" r="7" fill="#41b883" />
                  <text x="40" y="18" class="repo" dominant-baseline="middle">awesome-android-ui</text>
                  <polygon transform="translate(370,20)" points="7,0.5 8.9,5 13.5,5.3 10,8.2 11.2,12.9 7,10.4 2.8,12.9 4,8.2 0.5,5.3 5.1,5" fill="#41b883" />
                  <text x="429" y="27" text-anchor="end" class="stars" dominant-baseline="middle">55,965</text>
                  <text x="40" y="37" class="desc" dominant-baseline="middle">A curated list of awesome Android UI/UX libraries</text>
                </g>
                
                <g transform="translate(24,120)">
                  <rect width="447" height="54" rx="12" fill="#edf3ef" />
                  <g transform="translate(10,14) scale(1.2500)">
        <g transform="translate(0,0)">
          <rect width="16" height="16" rx="4" fill="#f5efff" />
          <path d="M2 2h12L8.2 7.8 14 14H9.2L5.8 10.2 2 14Z" fill="#A97BFF" />
          <path d="M2 2h6.2L2 8.1Z" fill="#7f52ff" />
          <path d="M14 2 8.2 7.8 14 14Z" fill="#ff7f52" />
        </g>
        </g>
                  <text x="40" y="18" class="repo" dominant-baseline="middle">recyclerview-animators</text>
                  <polygon transform="translate(370,20)" points="7,0.5 8.9,5 13.5,5.3 10,8.2 11.2,12.9 7,10.4 2.8,12.9 4,8.2 0.5,5.3 5.1,5" fill="#41b883" />
                  <text x="429" y="27" text-anchor="end" class="stars" dominant-baseline="middle">11,559</text>
                  <text x="40" y="37" class="desc" dominant-baseline="middle">An Android Animation library which easily add iteman...</text>
                </g>
                
                <g transform="translate(24,182)">
                  <rect width="447" height="54" rx="12" fill="#edf3ef" />
                  <g transform="translate(10,14) scale(1.2500)">
        <g transform="translate(0,0)">
          <rect width="16" height="16" rx="4" fill="#fff4e8" />
          <g fill="none" stroke-linecap="round" stroke-linejoin="round">
            <path d="M6 4c.8-.8 1.2-1.3 1-2M8.5 4.5c.8-.7 1.2-1.3 1.3-2.2" stroke="#f89820" stroke-width="1" />
            <path d="M4.2 7.2h5.4c1 0 1.7.7 1.7 1.7v1H5.7c-1 0-1.6-.6-1.6-1.5 0-.5 0-.7.1-1.2Z" stroke="#5382a1" stroke-width="1" />
            <path d="M5 11.5c1 .6 4 .6 5 0" stroke="#5382a1" stroke-width="1" />
          </g>
        </g>
        </g>
                  <text x="40" y="18" class="repo" dominant-baseline="middle">glide-transformations</text>
                  <polygon transform="translate(370,20)" points="7,0.5 8.9,5 13.5,5.3 10,8.2 11.2,12.9 7,10.4 2.8,12.9 4,8.2 0.5,5.3 5.1,5" fill="#41b883" />
                  <text x="429" y="27" text-anchor="end" class="stars" dominant-baseline="middle">9,900</text>
                  <text x="40" y="37" class="desc" dominant-baseline="middle">An Android transformation library providing a variet...</text>
                </g>
                
</svg>
