<svg xmlns="http://www.w3.org/2000/svg" width="495" height="252" viewBox="0 0 495 252" role="img" aria-labelledby="title desc">
  <title id="title">wasabeef Most Used Languages</title>
  <desc id="desc">Auto-generated GitHub language usage card based on public repositories.</desc>
  <style>
    .title { fill: #41b883; font: 600 19px 'Segoe UI', Ubuntu, Sans-Serif; }
    .tile-label { fill: #273849; font: 700 13px 'Segoe UI', Ubuntu, Sans-Serif; }
    .tile-rank { fill: #5f7383; font: 600 11px 'Segoe UI', Ubuntu, Sans-Serif; }
    .tile-percent { fill: #5f7383; font: 700 11px 'Segoe UI', Ubuntu, Sans-Serif; }
    .donut-main { fill: #273849; font: 700 22px 'Segoe UI', Ubuntu, Sans-Serif; }
    .donut-sub { fill: #5f7383; font: 600 12px 'Segoe UI', Ubuntu, Sans-Serif; }
    .empty { fill: #5f7383; font: 500 12px 'Segoe UI', Ubuntu, Sans-Serif; }
  </style>
  <rect x="1" y="1" width="493" height="250" rx="12" fill="#fffefe" stroke="none" />
  <g transform="translate(24,14) scale(1.0625)"><path d="M8 0C3.58 0 0 3.58 0 8c0 3.54 2.29 6.53 5.47 7.59 .4.07.55-.17.55-.38 0-.19-.01-.82-.01-1.49-2.01.37-2.53-.49-2.69-.94-.09-.23-.48-.94-.82-1.13-.28-.15-.68-.52-.01-.53.63-.01 1.08.58 1.23.82.72 1.21 1.87.87 2.33.66.07-.52.28-.87.51-1.07-1.78-.2-3.64-.89-3.64-3.95 0-.87.31-1.59.82-2.15-.08-.2-.36-1.02.08-2.12 0 0 .67-.21 2.2.82A7.65 7.65 0 0 1 8 4.84c.68 0 1.36.09 2 .27 1.53-1.04 2.2-.82 2.2-.82.44 1.1.16 1.92.08 2.12.51.56.82 1.27.82 2.15 0 3.07-1.87 3.75-3.65 3.95.29.25.54.73.54 1.48 0 1.07-.01 1.93-.01 2.2 0 .21.15.46.55.38A8.01 8.01 0 0 0 16 8c0-4.42-3.58-8-8-8" fill="#41b883" /></g>
  <text x="49" y="25" class="title" dominant-baseline="middle">Most Used Languages</text>
  
                <g transform="translate(24,56)">
                  <rect width="118" height="58" rx="12" fill="#edf3ef" />
                  <rect y="54" width="118" height="4" rx="2" fill="#dea584" />
                  <g transform="translate(12,12) scale(1.2500)">
        <g transform="translate(0,0)">
          <rect width="16" height="16" rx="4" fill="#fff5ef" />
          <g fill="none" stroke="#dea584" stroke-linecap="round" stroke-linejoin="round">
            <circle cx="8" cy="8" r="4.1" stroke-width="1.1" />
            <circle cx="8" cy="8" r="5.8" stroke-width="1.1" stroke-dasharray="1 1.9" />
          </g>
          <text x="8" y="8.7" text-anchor="middle" dominant-baseline="middle" fill="#8b5e3c" style="font:700 6px 'Segoe UI', Ubuntu, Sans-Serif;">R</text>
        </g>
        </g>
                  <text x="41" y="22" class="tile-label" dominant-baseline="middle" style="font-size:14px;">Rust</text>
                  <text x="12" y="43" class="tile-rank" dominant-baseline="middle">#1</text>
                  <text x="106" y="43" text-anchor="end" class="tile-percent" dominant-baseline="middle">33.0%</text>
                </g>
                
                <g transform="translate(152,56)">
                  <rect width="118" height="58" rx="12" fill="#edf3ef" />
                  <rect y="54" width="118" height="4" rx="2" fill="#3178c6" />
                  <g transform="translate(12,12) scale(1.2500)">
        <g transform="translate(0,0)">
          <rect width="16" height="16" rx="4" fill="#3178c6" />
          <text x="8" y="8.4" text-anchor="middle" dominant-baseline="middle" fill="#ffffff" style="font:700 6.4px 'Segoe UI', Ubuntu, Sans-Serif;">TS</text>
        </g>
        </g>
                  <text x="41" y="22" class="tile-label" dominant-baseline="middle" style="font-size:13px;">TypeScript</text>
                  <text x="12" y="43" class="tile-rank" dominant-baseline="middle">#2</text>
                  <text x="106" y="43" text-anchor="end" class="tile-percent" dominant-baseline="middle">21.6%</text>
                </g>
                
                <g transform="translate(24,124)">
                  <rect width="118" height="58" rx="12" fill="#edf3ef" />
                  <rect y="54" width="118" height="4" rx="2" fill="#b07219" />
                  <g transform="translate(12,12) scale(1.2500)">
        <g transform="translate(0,0)">
          <rect width="16" height="16" rx="4" fill="#fff4e8" />
          <g fill="none" stroke-linecap="round" stroke-linejoin="round">
            <path d="M6 4c.8-.8 1.2-1.3 1-2M8.5 4.5c.8-.7 1.2-1.3 1.3-2.2" stroke="#f89820" stroke-width="1" />
            <path d="M4.2 7.2h5.4c1 0 1.7.7 1.7 1.7v1H5.7c-1 0-1.6-.6-1.6-1.5 0-.5 0-.7.1-1.2Z" stroke="#5382a1" stroke-width="1" />
            <path d="M5 11.5c1 .6 4 .6 5 0" stroke="#5382a1" stroke-width="1" />
          </g>
        </g>
        </g>
                  <text x="41" y="22" class="tile-label" dominant-baseline="middle" style="font-size:14px;">Java</text>
                  <text x="12" y="43" class="tile-rank" dominant-baseline="middle">#3</text>
                  <text x="106" y="43" text-anchor="end" class="tile-percent" dominant-baseline="middle">11.4%</text>
                </g>
                
                <g transform="translate(152,124)">
                  <rect width="118" height="58" rx="12" fill="#edf3ef" />
                  <rect y="54" width="118" height="4" rx="2" fill="#fcb32c" />
                  <g transform="translate(12,12) scale(1.2500)">
    <g transform="translate(0,0)">
      <rect width="16" height="16" rx="4" fill="#fcb32c" />
      <text x="8" y="9" text-anchor="middle" dominant-baseline="middle" fill="#ffffff" style="font:700 7px 'Segoe UI', Ubuntu, Sans-Serif;">MD</text>
    </g>
    </g>
                  <text x="41" y="22" class="tile-label" dominant-baseline="middle" style="font-size:14px;">MDX</text>
                  <text x="12" y="43" class="tile-rank" dominant-baseline="middle">#4</text>
                  <text x="106" y="43" text-anchor="end" class="tile-percent" dominant-baseline="middle">7.7%</text>
                </g>
                
                <g transform="translate(24,192)">
                  <rect width="118" height="58" rx="12" fill="#edf3ef" />
                  <rect y="54" width="118" height="4" rx="2" fill="#00B4AB" />
                  <g transform="translate(12,12) scale(1.2500)">
        <g transform="translate(0,0)">
          <rect width="16" height="16" rx="4" fill="#e8fbfb" />
          <path d="M3 2.5 8.5 1 13 5.5 8 15 3 10.5Z" fill="#00B4AB" />
          <path d="M8.5 1 13 5.5 8.6 7.2 6 4.7Z" fill="#00838f" />
          <path d="M6 4.7 8.6 7.2 8 15 3 10.5Z" fill="#26c6da" />
        </g>
        </g>
                  <text x="41" y="22" class="tile-label" dominant-baseline="middle" style="font-size:14px;">Dart</text>
                  <text x="12" y="43" class="tile-rank" dominant-baseline="middle">#5</text>
                  <text x="106" y="43" text-anchor="end" class="tile-percent" dominant-baseline="middle">6.9%</text>
                </g>
                
                <g transform="translate(152,192)">
                  <rect width="118" height="58" rx="12" fill="#edf3ef" />
                  <rect y="54" width="118" height="4" rx="2" fill="#A97BFF" />
                  <g transform="translate(12,12) scale(1.2500)">
        <g transform="translate(0,0)">
          <rect width="16" height="16" rx="4" fill="#f5efff" />
          <path d="M2 2h12L8.2 7.8 14 14H9.2L5.8 10.2 2 14Z" fill="#A97BFF" />
          <path d="M2 2h6.2L2 8.1Z" fill="#7f52ff" />
          <path d="M14 2 8.2 7.8 14 14Z" fill="#ff7f52" />
        </g>
        </g>
                  <text x="41" y="22" class="tile-label" dominant-baseline="middle" style="font-size:14px;">Kotlin</text>
                  <text x="12" y="43" class="tile-rank" dominant-baseline="middle">#6</text>
                  <text x="106" y="43" text-anchor="end" class="tile-percent" dominant-baseline="middle">5.9%</text>
                </g>
                
  <path d="M376.00,58.00 A80.00,80.00 0 0 1 446.21,176.34 L419.01,161.49 A49.00,49.00 0 0 0 376.00,89.00 Z" fill="#dea584" /><path d="M446.21,176.34 A80.00,80.00 0 0 1 353.23,214.69 L362.05,184.97 A49.00,49.00 0 0 0 419.01,161.49 Z" fill="#3178c6" /><path d="M353.23,214.69 A80.00,80.00 0 0 1 308.44,180.85 L334.62,164.24 A49.00,49.00 0 0 0 362.05,184.97 Z" fill="#b07219" /><path d="M308.44,180.85 A80.00,80.00 0 0 1 296.25,144.28 L327.15,141.85 A49.00,49.00 0 0 0 334.62,164.24 Z" fill="#fcb32c" /><path d="M296.25,144.28 A80.00,80.00 0 0 1 301.06,110.00 L330.10,120.85 A49.00,49.00 0 0 0 327.15,141.85 Z" fill="#00B4AB" /><path d="M301.06,110.00 A80.00,80.00 0 0 1 316.15,84.92 L339.34,105.49 A49.00,49.00 0 0 0 330.10,120.85 Z" fill="#A97BFF" /><path d="M316.15,84.92 A80.00,80.00 0 0 1 376.00,58.00 L376.00,89.00 A49.00,49.00 0 0 0 339.34,105.49 Z" fill="#edf3ef" /><circle cx="376" cy="138" r="47" fill="#fffefe" /><text x="376" y="129" text-anchor="middle" class="donut-main" dominant-baseline="middle">33.0%</text><text x="376" y="151" text-anchor="middle" class="donut-sub" dominant-baseline="middle">Rust</text>
  
</svg>
